<?xml version="1.0" encoding="UTF-8"?>
<svg id="Layer_2" data-name="Layer 2" xmlns="http://www.w3.org/2000/svg" viewBox="0 0 986.58 322.15">
  <defs>
    <style>
      .cls-1 {
        fill: #fff;
      }
    </style>
  </defs>
  <g id="Layer_1-2" data-name="Layer 1">
    <g>
      <path class="cls-1" d="M230.07,2.92h38.9v152.96c0,15.02-4.78,27.3-14.33,36.85-9.56,9.56-24.27,14.33-44.16,14.33s-34.56-4.78-44.02-14.33c-9.46-9.55-14.18-21.83-14.18-36.85V2.92h38.9v151.2c0,5.07,1.46,9.21,4.39,12.43,2.92,3.22,7.9,4.83,14.92,4.83s12.28-1.56,15.21-4.68c2.92-3.12,4.39-7.31,4.39-12.58V2.92Z"/>
      <path class="cls-1" d="M311.38,2.92h66.97c15.6,0,27.68,3.8,36.27,11.41,8.58,7.6,12.87,18.72,12.87,33.34v109.38c0,14.43-3.66,25.88-10.97,34.36-7.31,8.48-19.35,12.72-36.12,12.72h-69.02V2.92ZM388.58,49.13c0-4.09-1.02-7.5-3.07-10.24-2.05-2.73-6.19-4.09-12.43-4.09h-22.81v135.7h22.81c6.24,0,10.38-1.61,12.43-4.83,2.05-3.22,3.07-7.06,3.07-11.55V49.13Z"/>
      <path class="cls-1" d="M497.09,2.92h32.46l-35.97,201.21h-37.14L497.09,2.92ZM496.5,122.54h55.28v33.05h-55.28v-33.05ZM516.68,2.92h34.8l40.36,201.21h-37.43L516.68,2.92Z"/>
      <path class="cls-1" d="M623.14,2.92h39.48v201.21h-39.48V2.92Z"/>
      <path class="cls-1" d="M703.56,50.89c0-15.01,4.83-27.24,14.48-36.7,9.65-9.45,24.42-14.18,44.31-14.18s34.66,4.73,44.31,14.18c9.65,9.46,14.48,21.69,14.48,36.7v104.99c0,15.02-4.83,27.3-14.48,36.85-9.65,9.56-24.42,14.33-44.31,14.33s-34.66-4.78-44.31-14.33c-9.65-9.55-14.48-21.83-14.48-36.85V50.89ZM782.23,52.94c0-5.26-1.56-9.5-4.68-12.72-3.12-3.22-8.19-4.83-15.21-4.83s-12.09,1.61-15.21,4.83c-3.12,3.22-4.68,7.46-4.68,12.72v101.19c0,5.07,1.56,9.21,4.68,12.43,3.12,3.22,8.19,4.83,15.21,4.83s12.09-1.56,15.21-4.68c3.12-3.12,4.68-7.31,4.68-12.58V52.94Z"/>
      <path class="cls-1" d="M948.05,2.92h38.31v201.21h-38.31l-29.83-76.33c-8.19-20.66-14.04-36.6-17.55-47.82-3.51-11.21-5.66-17.59-6.43-19.16,0,.98.54,4.44,1.61,10.38,1.07,5.95,2.09,14.62,3.07,26.03.97,11.41,1.46,25.88,1.46,43.43v63.46h-38.31V2.92h39.19l29.54,74.87c7.99,20.67,13.7,36.56,17.11,47.67,3.41,11.11,5.51,17.55,6.29,19.3,0-1.17-.49-4.78-1.46-10.82-.98-6.04-2-14.87-3.07-26.47-1.07-11.6-1.61-26.17-1.61-43.72V2.92Z"/>
    </g>
    <path class="cls-1" d="M64.41,2.91v182.39c0,5.54-.36,9.72-2.55,12.59-2.19,2.87-6.48,4.39-11.46,4.39h-24.34L0,243.24h48.89c1.93-.01,3.38,0,4.68,0,12.25-.04,21.44-2.29,28.91-7.28,7.47-4.98,12.99-11.91,16.57-20.75,3.58-8.86,5.38-18.83,5.38-29.91V2.91h-40.02Z"/>
    <rect class="cls-1" x="152.49" y="240.2" width="834.08" height="4.22"/>
    <g>
      <path class="cls-1" d="M160.79,287.8c0,1.91.66,3.43,1.97,4.56,1.32,1.13,3.09,2,5.32,2.61,2.23.61,4.73,1.08,7.51,1.4,2.78.33,5.63.63,8.55.91,2.92.28,5.77.64,8.55,1.08,2.78.44,5.28,1.09,7.51,1.96,2.23.87,4,2.04,5.32,3.52,1.32,1.48,1.97,3.39,1.97,5.73,0,2.74-1.13,5.04-3.4,6.91-2.27,1.87-5.35,3.28-9.26,4.24-3.91.96-8.35,1.43-13.32,1.43s-9.78-.47-13.76-1.4c-3.98-.93-7.27-2.32-9.87-4.17-2.6-1.85-4.33-4.14-5.21-6.88h6.14c1.1,3.04,3.62,5.38,7.56,7.01,3.95,1.63,8.99,2.44,15.13,2.44,6.58,0,11.55-.85,14.91-2.54,3.36-1.69,5.04-3.89,5.04-6.58,0-2.04-.66-3.67-1.97-4.89-1.32-1.22-3.09-2.15-5.32-2.8-2.23-.65-4.73-1.16-7.51-1.53-2.78-.37-5.63-.69-8.55-.98-2.92-.28-5.77-.63-8.55-1.04-2.78-.41-5.28-1.02-7.51-1.82-2.23-.8-4-1.92-5.32-3.36-1.32-1.43-1.97-3.3-1.97-5.6,0-2.09.91-4,2.74-5.73,1.83-1.74,4.53-3.13,8.11-4.17,3.58-1.04,8-1.56,13.26-1.56,4.6,0,8.79.45,12.55,1.34,3.76.89,6.89,2.26,9.37,4.11,2.48,1.85,4.09,4.23,4.82,7.14h-6.25c-1.02-3.35-3.34-5.78-6.96-7.3-3.62-1.52-8.17-2.28-13.65-2.28-5.77,0-10.21.76-13.32,2.28-3.11,1.52-4.66,3.52-4.66,6Z"/>
      <path class="cls-1" d="M277.88,280.18v-3h59.64v3h-59.64ZM304.73,321.5v-44.31h5.92v44.31h-5.92Z"/>
      <path class="cls-1" d="M472.68,304.62c0,3.61-1.15,6.72-3.45,9.35-2.3,2.63-5.57,4.65-9.81,6.06-4.24,1.41-9.32,2.12-15.24,2.12s-10.91-.71-15.18-2.12c-4.28-1.41-7.58-3.43-9.92-6.06-2.34-2.63-3.51-5.74-3.51-9.35v-27.44h6.03v27.44c0,4.56,2.01,8.15,6.03,10.75,4.02,2.61,9.54,3.91,16.55,3.91s12.64-1.31,16.66-3.94c4.02-2.63,6.03-6.2,6.03-10.72v-27.44h5.81v27.44Z"/>
      <path class="cls-1" d="M556.87,321.5v-44.31h5.92v44.31h-5.92ZM578.8,318.63c6.5,0,12.09-.76,16.77-2.28,4.68-1.52,8.26-3.71,10.74-6.58,2.48-2.87,3.73-6.32,3.73-10.36s-1.24-7.57-3.73-10.46c-2.49-2.89-6.07-5.09-10.74-6.61-4.68-1.52-10.27-2.28-16.77-2.28h-17.87v-2.87h17.87c7.67,0,14.29.89,19.84,2.67,5.55,1.78,9.85,4.32,12.88,7.62,3.03,3.3,4.55,7.28,4.55,11.93s-1.52,8.56-4.55,11.86c-3.03,3.3-7.33,5.83-12.88,7.59-5.55,1.76-12.17,2.64-19.84,2.64h-17.87v-2.87h17.87Z"/>
      <path class="cls-1" d="M698.29,321.5v-44.31h5.92v44.31h-5.92Z"/>
      <path class="cls-1" d="M820.31,322.15c-7.02,0-13.06-.91-18.14-2.74-5.08-1.82-8.99-4.44-11.73-7.85-2.74-3.41-4.11-7.46-4.11-12.15s1.37-8.81,4.11-12.22c2.74-3.41,6.65-6.04,11.73-7.88,5.08-1.85,11.13-2.77,18.14-2.77s13.06.92,18.14,2.77c5.08,1.85,9.01,4.48,11.79,7.88,2.78,3.41,4.17,7.48,4.17,12.22s-1.39,8.68-4.17,12.09c-2.78,3.41-6.71,6.04-11.79,7.88-5.08,1.85-11.13,2.77-18.14,2.77ZM820.31,319.15c5.85,0,10.87-.8,15.07-2.41,4.2-1.61,7.42-3.89,9.65-6.84,2.23-2.95,3.34-6.45,3.34-10.49s-1.12-7.67-3.34-10.62c-2.23-2.95-5.45-5.23-9.65-6.84-4.2-1.61-9.23-2.41-15.07-2.41s-10.76.8-14.96,2.41c-4.2,1.61-7.42,3.9-9.65,6.88-2.23,2.98-3.34,6.51-3.34,10.59s1.11,7.59,3.34,10.52c2.23,2.93,5.44,5.2,9.65,6.81,4.2,1.61,9.19,2.41,14.96,2.41Z"/>
      <path class="cls-1" d="M939.69,287.8c0,1.91.66,3.43,1.97,4.56,1.32,1.13,3.09,2,5.32,2.61,2.23.61,4.73,1.08,7.51,1.4,2.78.33,5.63.63,8.55.91,2.92.28,5.77.64,8.55,1.08,2.78.44,5.28,1.09,7.51,1.96,2.23.87,4,2.04,5.32,3.52,1.32,1.48,1.97,3.39,1.97,5.73,0,2.74-1.13,5.04-3.4,6.91-2.27,1.87-5.35,3.28-9.26,4.24-3.91.96-8.35,1.43-13.32,1.43s-9.78-.47-13.76-1.4c-3.98-.93-7.27-2.32-9.87-4.17-2.6-1.85-4.33-4.14-5.21-6.88h6.14c1.1,3.04,3.62,5.38,7.56,7.01,3.95,1.63,8.99,2.44,15.13,2.44,6.58,0,11.55-.85,14.91-2.54,3.36-1.69,5.04-3.89,5.04-6.58,0-2.04-.66-3.67-1.97-4.89-1.32-1.22-3.09-2.15-5.32-2.8-2.23-.65-4.73-1.16-7.51-1.53-2.78-.37-5.63-.69-8.55-.98-2.92-.28-5.77-.63-8.55-1.04-2.78-.41-5.28-1.02-7.51-1.82-2.23-.8-4-1.92-5.32-3.36-1.32-1.43-1.97-3.3-1.97-5.6,0-2.09.91-4,2.74-5.73,1.83-1.74,4.53-3.13,8.11-4.17,3.58-1.04,8-1.56,13.26-1.56,4.6,0,8.79.45,12.55,1.34,3.76.89,6.89,2.26,9.37,4.11,2.48,1.85,4.09,4.23,4.82,7.14h-6.25c-1.02-3.35-3.34-5.78-6.96-7.3-3.62-1.52-8.17-2.28-13.65-2.28-5.77,0-10.21.76-13.32,2.28-3.11,1.52-4.66,3.52-4.66,6Z"/>
    </g>
  </g>
</svg>