<?xml version="1.0" encoding="UTF-8"?>
<svg id="Layer_1" data-name="Layer 1" xmlns="http://www.w3.org/2000/svg" viewBox="0 0 1920 1080">
  <g>
    <path d="M446.54,243.93h72.82v286.35c0,28.11-8.95,51.11-26.83,68.99-17.89,17.89-45.44,26.83-82.67,26.83s-64.7-8.94-82.4-26.83c-17.71-17.88-26.55-40.88-26.55-68.99V243.93h72.82v283.06c0,9.5,2.74,17.25,8.21,23.27,5.48,6.02,14.78,9.03,27.92,9.03s23-2.92,28.47-8.76c5.48-5.83,8.21-13.69,8.21-23.54V243.93Z"/>
    <path d="M598.75,243.93h125.38c29.2,0,51.83,7.12,67.89,21.35,16.06,14.24,24.09,35.04,24.09,62.42v204.77c0,27.02-6.84,48.45-20.53,64.33-13.69,15.88-36.23,23.82-67.62,23.82h-129.21V243.93ZM743.29,330.44c0-7.67-1.92-14.05-5.75-19.16-3.83-5.11-11.59-7.66-23.27-7.66h-42.71v254.04h42.71c11.68,0,19.44-3.01,23.27-9.03,3.83-6.02,5.75-13.23,5.75-21.63v-196.56Z"/>
    <path d="M946.41,243.93h60.77l-67.34,376.69h-69.53l76.1-376.69ZM945.32,467.86h103.48v61.87h-103.48v-61.87ZM983.1,243.93h65.15l75.56,376.69h-70.08l-70.63-376.69Z"/>
    <path d="M1182.39,243.93h73.91v376.69h-73.91V243.93Z"/>
    <path d="M1332.94,333.72c0-28.1,9.03-51,27.1-68.71,18.07-17.7,45.72-26.55,82.95-26.55s64.88,8.85,82.95,26.55c18.07,17.71,27.1,40.61,27.1,68.71v196.56c0,28.11-9.03,51.11-27.1,68.99-18.07,17.89-45.72,26.83-82.95,26.83s-64.88-8.94-82.95-26.83c-18.07-17.88-27.1-40.88-27.1-68.99v-196.56ZM1480.22,337.56c0-9.85-2.93-17.79-8.76-23.82-5.84-6.02-15.33-9.03-28.47-9.03s-22.64,3.01-28.47,9.03c-5.84,6.02-8.76,13.96-8.76,23.82v189.44c0,9.5,2.92,17.25,8.76,23.27,5.84,6.02,15.33,9.03,28.47,9.03s22.63-2.92,28.47-8.76c5.83-5.83,8.76-13.69,8.76-23.54v-189.44Z"/>
    <path d="M1790.66,243.93h71.72v376.69h-71.72l-55.84-142.9c-15.33-38.68-26.28-68.52-32.85-89.52-6.57-20.99-10.59-32.94-12.05-35.86,0,1.83,1,8.31,3.01,19.44,2,11.14,3.92,27.37,5.75,48.73,1.82,21.35,2.74,48.45,2.74,81.31v118.81h-71.72V243.93h73.37l55.3,140.16c14.96,38.69,25.64,68.44,32.03,89.24,6.38,20.81,10.31,32.85,11.77,36.14,0-2.19-.91-8.94-2.74-20.26-1.83-11.31-3.75-27.83-5.75-49.55-2.01-21.71-3.01-49-3.01-81.85v-113.88Z"/>
  </g>
  <path d="M136.4,243.9v341.45c0,10.37-.67,18.19-4.77,23.57-4.11,5.38-12.14,8.22-21.46,8.22h-45.56l-48.79,76.67h91.53c3.62-.02,6.32,0,8.76,0,22.94-.07,40.14-4.3,54.12-13.63,13.98-9.33,24.32-22.29,31.02-38.85,6.7-16.59,10.07-35.25,10.07-55.99V243.9h-74.93Z"/>
  <rect x="301.3" y="688.12" width="1561.48" height="7.9"/>
  <g>
    <path d="M316.84,777.25c0,3.58,1.23,6.43,3.69,8.54,2.46,2.12,5.78,3.74,9.95,4.88,4.17,1.14,8.86,2.01,14.06,2.62,5.2.61,10.53,1.18,16.01,1.71,5.47.53,10.81,1.2,16.01,2.01,5.2.81,9.88,2.03,14.06,3.66,4.17,1.63,7.49,3.82,9.95,6.59,2.46,2.77,3.69,6.34,3.69,10.74,0,5.12-2.12,9.44-6.36,12.93-4.24,3.5-10.02,6.14-17.34,7.93-7.32,1.79-15.63,2.68-24.93,2.68s-18.3-.88-25.76-2.62c-7.46-1.75-13.62-4.35-18.47-7.81-4.86-3.46-8.11-7.75-9.75-12.87h11.49c2.05,5.69,6.77,10.07,14.16,13.12,7.39,3.05,16.83,4.57,28.32,4.57,12.31,0,21.62-1.59,27.91-4.76,6.29-3.17,9.44-7.28,9.44-12.32,0-3.82-1.23-6.87-3.69-9.15-2.46-2.28-5.78-4.03-9.95-5.25-4.18-1.22-8.86-2.17-14.06-2.87-5.2-.69-10.54-1.3-16.01-1.83-5.47-.53-10.81-1.18-16.01-1.95-5.2-.77-9.89-1.91-14.06-3.42-4.17-1.5-7.49-3.6-9.95-6.28-2.46-2.68-3.69-6.18-3.69-10.49,0-3.9,1.71-7.48,5.13-10.74,3.42-3.25,8.48-5.86,15.19-7.81,6.7-1.95,14.98-2.93,24.83-2.93,8.62,0,16.45.83,23.5,2.5,7.04,1.67,12.89,4.23,17.55,7.69,4.65,3.46,7.66,7.91,9.03,13.36h-11.7c-1.92-6.26-6.26-10.82-13.03-13.66-6.77-2.85-15.29-4.27-25.55-4.27-10.81,0-19.12,1.42-24.94,4.27-5.82,2.85-8.72,6.59-8.72,11.22Z"/>
    <path d="M536.03,762.98v-5.61h111.65v5.61h-111.65ZM586.31,840.32v-82.96h11.08v82.96h-11.08Z"/>
    <path d="M900.72,808.73c0,6.75-2.16,12.59-6.46,17.51-4.31,4.92-10.44,8.7-18.37,11.35-7.94,2.64-17.44,3.97-28.53,3.97s-20.42-1.32-28.42-3.97c-8-2.64-14.2-6.42-18.57-11.35-4.38-4.92-6.57-10.75-6.57-17.51v-51.36h11.29v51.36c0,8.54,3.76,15.25,11.29,20.13,7.52,4.88,17.85,7.32,30.99,7.32s23.67-2.46,31.19-7.38c7.52-4.92,11.29-11.61,11.29-20.07v-51.36h10.88v51.36Z"/>
    <path d="M1058.34,840.32v-82.96h11.08v82.96h-11.08ZM1099.38,834.96c12.18,0,22.64-1.42,31.4-4.27,8.75-2.85,15.46-6.95,20.11-12.32,4.65-5.37,6.98-11.83,6.98-19.4s-2.33-14.17-6.98-19.58c-4.65-5.41-11.36-9.54-20.11-12.38-8.76-2.85-19.23-4.27-31.4-4.27h-33.45v-5.37h33.45c14.37,0,26.75,1.67,37.15,5,10.4,3.34,18.44,8.09,24.11,14.27,5.68,6.18,8.52,13.62,8.52,22.33s-2.84,16.02-8.52,22.2c-5.68,6.18-13.72,10.92-24.11,14.21-10.4,3.29-22.78,4.94-37.15,4.94h-33.45v-5.37h33.45Z"/>
    <path d="M1323.08,840.32v-82.96h11.08v82.96h-11.08Z"/>
    <path d="M1551.51,841.54c-13.14,0-24.46-1.71-33.97-5.12-9.51-3.42-16.83-8.31-21.96-14.7-5.13-6.38-7.69-13.97-7.69-22.75s2.56-16.49,7.69-22.88c5.13-6.38,12.45-11.3,21.96-14.76,9.51-3.46,20.83-5.18,33.97-5.18s24.45,1.73,33.96,5.18c9.51,3.46,16.86,8.38,22.06,14.76,5.2,6.39,7.8,14.01,7.8,22.88s-2.6,16.25-7.8,22.63c-5.2,6.39-12.55,11.31-22.06,14.76-9.51,3.46-20.83,5.19-33.96,5.19ZM1551.51,835.93c10.94,0,20.35-1.5,28.22-4.51,7.87-3.01,13.89-7.28,18.06-12.81,4.17-5.53,6.26-12.08,6.26-19.64s-2.09-14.35-6.26-19.89c-4.18-5.53-10.19-9.8-18.06-12.81-7.87-3.01-17.27-4.51-28.22-4.51s-20.15,1.51-28.02,4.51c-7.87,3.01-13.89,7.3-18.06,12.87-4.18,5.57-6.26,12.18-6.26,19.83s2.08,14.21,6.26,19.7c4.17,5.49,10.19,9.74,18.06,12.75,7.87,3.01,17.21,4.51,28.02,4.51Z"/>
    <path d="M1775,777.25c0,3.58,1.23,6.43,3.69,8.54,2.46,2.12,5.78,3.74,9.95,4.88,4.17,1.14,8.86,2.01,14.06,2.62,5.2.61,10.53,1.18,16.01,1.71,5.47.53,10.81,1.2,16.01,2.01,5.2.81,9.88,2.03,14.06,3.66,4.17,1.63,7.49,3.82,9.95,6.59,2.46,2.77,3.69,6.34,3.69,10.74,0,5.12-2.12,9.44-6.36,12.93-4.24,3.5-10.02,6.14-17.34,7.93-7.32,1.79-15.63,2.68-24.93,2.68s-18.3-.88-25.76-2.62c-7.46-1.75-13.62-4.35-18.47-7.81-4.86-3.46-8.11-7.75-9.75-12.87h11.49c2.05,5.69,6.77,10.07,14.16,13.12,7.39,3.05,16.83,4.57,28.32,4.57,12.31,0,21.62-1.59,27.91-4.76,6.29-3.17,9.44-7.28,9.44-12.32,0-3.82-1.23-6.87-3.69-9.15-2.46-2.28-5.78-4.03-9.95-5.25-4.18-1.22-8.86-2.17-14.06-2.87-5.2-.69-10.54-1.3-16.01-1.83-5.47-.53-10.81-1.18-16.01-1.95-5.2-.77-9.89-1.91-14.06-3.42-4.17-1.5-7.49-3.6-9.95-6.28-2.46-2.68-3.69-6.18-3.69-10.49,0-3.9,1.71-7.48,5.13-10.74,3.42-3.25,8.48-5.86,15.19-7.81,6.7-1.95,14.98-2.93,24.83-2.93,8.62,0,16.45.83,23.5,2.5,7.04,1.67,12.89,4.23,17.55,7.69,4.65,3.46,7.66,7.91,9.03,13.36h-11.7c-1.92-6.26-6.26-10.82-13.03-13.66-6.77-2.85-15.29-4.27-25.55-4.27-10.81,0-19.12,1.42-24.94,4.27-5.82,2.85-8.72,6.59-8.72,11.22Z"/>
  </g>
</svg>